<svg width="100%" height="100%" viewBox="0 0 300 167" version="1.1" xmlns="http://www.w3.org/2000/svg" xmlns:xlink="http://www.w3.org/1999/xlink" xml:space="preserve" xmlns:serif="http://www.serif.com/" style="fill-rule:evenodd;clip-rule:evenodd;stroke-linejoin:round;stroke-miterlimit:2;"><g><g><path d="M40.329,51.533c11.013,-21.045 30.017,-26.433 35.271,-27.666c25.979,-6.063 43.662,7.891 43.662,7.891c-4.362,4.371 -6.987,7.088 -7.095,7.025c-9.338,-5.554 -19.946,-8.129 -32.475,-5.725c-18.45,3.546 -27.859,18.488 -27.859,18.488l-11.508,-0l-0,-0.013l0.004,0Z" style="fill:#000000;fill-rule:nonzero;"/><path d="M130.821,42.263c6.546,7.612 11.891,19.17 12.433,32.07c1.417,33.834 -25.783,48.959 -25.783,48.959l-6.921,-7.263c9.662,-5.325 23.142,-18.025 22.854,-40.367c-0.179,-15.795 -9.546,-26.4 -9.546,-26.4c4.896,-4.916 6.963,-6.999 6.963,-6.999" style="fill:#000000;fill-rule:nonzero;"/><path d="M45.063,66.858c-2.867,13.384 -0.096,26.454 8.154,37.288c8.325,10.954 25.445,20.637 40.875,17.675l8.054,8.112c-23.129,5.834 -45.925,-3.987 -58.2,-21.696c-12.079,-17.425 -10.175,-34.495 -8.913,-41.391l10.029,-0l0.001,0.012Z" style="fill:#000000;fill-rule:nonzero;"/></g><path d="M75.6,79.588l61.642,-61.755l10.783,3.079l-65.708,65.659l-6.717,-6.984Z" style="fill:#000000;fill-rule:nonzero;"/><path d="M45.508,66.858l13.454,0l70.984,74.055l-2.883,10.575l-81.555,-84.63Z" style="fill:#000000;fill-rule:nonzero;"/><path d="M2.892,54.325l93.375,-0.008l-9.829,9.829l-77.655,-0l-5.891,-9.821Z" style="fill:#000000;fill-rule:nonzero;"/></g><g><path d="M224.813,110.838l18.92,-55.226l-10.566,0l-10.067,30.58c-1.479,4.516 -2.337,7.479 -2.8,9.275c-0.408,-1.842 -1.137,-4.817 -2.4,-8.792l-9.912,-31.054l-11.025,-0l18.508,55.225l9.342,-0.008Z" style="fill:#000000;fill-rule:nonzero;"/><path d="M275.1,110.838l18.929,-55.226l-10.571,0l-10.062,30.58c-1.483,4.516 -2.342,7.479 -2.804,9.275c-0.4,-1.842 -1.134,-4.817 -2.396,-8.792l-9.917,-31.054l-11.025,-0l18.509,55.225l9.337,-0.008Z" style="fill:#000000;fill-rule:nonzero;"/><path d="M168.275,102.517c0.683,-0.946 1.729,-2.446 2.483,-3.75l21.121,-35.642l0,-7.517l-32.742,0l-2.341,8.542l18.566,0c1.934,0 3.6,-0.108 4.688,-0.2c-0.738,1.008 -1.883,2.663 -2.904,4.363l-21.2,35.258l-0,7.279l33.983,0l2.604,-8.454l-19.996,-0c0.009,-0 -2.833,0.083 -4.262,0.121Z" style="fill:#000000;fill-rule:nonzero;"/></g></svg>
